<svg width="33" height="33" viewBox="0 0 33 33" fill="none" xmlns="http://www.w3.org/2000/svg">
    <path d="M27 16.968C27 19.7528 25.8938 22.4235 23.9246 24.3926C21.9555 26.3618 19.2848 27.468 16.5 27.468C13.7152 27.468 11.0445 26.3618 9.07538 24.3926C7.10625 22.4235 6 19.7528 6 16.968C6 14.1832 7.10624 11.5125 9.07538 9.5434C11.0445 7.57427 13.7152 6.46802 16.5 6.46802C19.2848 6.46802 21.9555 7.57426 23.9246 9.54339C25.8937 11.5125 27 14.1832 27 16.968L27 16.968Z" stroke="#FFFFFF22" stroke-width="3" stroke-linecap="round"/>
    <path d="M16.5 6.46802C18.7174 6.46802 20.8778 7.16999 22.6717 8.47334C24.4656 9.77668 25.8009 11.6145 26.4861 13.7233C27.1713 15.8322 27.1713 18.1038 26.4861 20.2127C25.8009 22.3216 24.4656 24.1594 22.6717 25.4627" stroke="white" stroke-width="3" stroke-linecap="round"/>
</svg>
