<svg width="25" height="24" viewBox="0 0 25 24" fill="none" xmlns="http://www.w3.org/2000/svg">
    <path d="M16.25 14.5C15.8358 14.5 15.5 14.8358 15.5 15.25C15.5 15.6642 15.8358 16 16.25 16H18.75C19.1642 16 19.5 15.6642 19.5 15.25C19.5 14.8358 19.1642 14.5 18.75 14.5H16.25ZM2.5 8.25C2.5 6.45507 3.95507 5 5.75 5H19.25C21.0449 5 22.5 6.45507 22.5 8.25V15.75C22.5 17.5449 21.0449 19 19.25 19H5.75C3.95507 19 2.5 17.5449 2.5 15.75V8.25ZM21 9.5V8.25C21 7.2835 20.2165 6.5 19.25 6.5H5.75C4.7835 6.5 4 7.2835 4 8.25V9.5H21ZM4 11V15.75C4 16.7165 4.7835 17.5 5.75 17.5H19.25C20.2165 17.5 21 16.7165 21 15.75V11H4Z" fill="#212121"/>
</svg>
